# ProBuilder 5.0.3
# https://unity3d.com/unity/features/worldbuilding/probuilder
# 2022/12/16 7:12:26

mtllib ./FloorPrototype04x01x04.mtl
o FloorPrototype04x01x04

g FloorPrototype04x01x04
v -12.62 -4.47 -6.52
v -12.62 -4.47 -10.52
v -12.62 -3.47 -6.52
v -12.62 -3.47 -10.52
v -8.62 -4.47 -10.52
v -8.62 -3.47 -10.52
v -8.62 -4.47 -6.52
v -8.62 -3.47 -6.52

vt 4 0
vt -2.842171E-14 0
vt 4 1
vt -2.842171E-14 1
vt 4 0
vt 4 1
vt -4 0
vt -4 1
vt -4 0
vt -4 1
vt 4 4
vt 0 4
vt -4 4

vn -1 0 5.960465E-08
vn -5.960465E-08 0 -1
vn 1 0 -5.960465E-08
vn 5.960465E-08 0 1
vn 0 1 0
vn 0 -1 0

usemtl ProBuilderDefault
f 3/3/1 4/4/1 2/2/1 1/1/1
f 4/6/2 6/4/2 5/2/2 2/5/2
f 6/4/3 8/8/3 7/7/3 5/2/3
f 8/4/4 3/10/4 1/9/4 7/2/4
f 8/12/5 6/2/5 4/5/5 3/11/5
f 1/13/6 2/9/6 5/2/6 7/12/6

