# ProBuilder 5.0.6
# https://unity3d.com/unity/features/worldbuilding/probuilder
# 2023/01/09 5:42:53

mtllib ./PlatformPrototype02x01x02.mtl
o PlatformPrototype02x01x02

g PlatformPrototype02x01x02
v 17.8695 -4 -8.083139
v 15.8695 -4 -8.083139
v 17.8695 -3 -8.083139
v 15.8695 -3 -8.083139
v 15.8695 -4 -10.08314
v 15.8695 -3 -10.08314
v 17.8695 -4 -10.08314
v 17.8695 -3 -10.08314

vt 0 0
vt -2 0
vt 0 1
vt -2 1
vt 2 0
vt 2 1
vt 0 2
vt 2 2
vt -2 2

vn 0 0 1
vn -1 0 0
vn 0 0 -1
vn 1 0 0
vn 0 1 0
vn 0 -1 0

usemtl ProBuilderDefault
f 3/3/1 4/4/1 2/2/1 1/1/1
f 4/6/2 6/3/2 5/1/2 2/5/2
f 6/6/3 8/3/3 7/1/3 5/5/3
f 8/3/4 3/4/4 1/2/4 7/1/4
f 8/1/5 6/5/5 4/8/5 3/7/5
f 1/7/6 2/9/6 5/2/6 7/1/6

